<svg width="46" height="37" viewBox="0 0 46 37" fill="none" xmlns="http://www.w3.org/2000/svg">
<path d="M4.34173 5.59993C7.51251 2.16247 12.3105 0.420006 18.6001 0.420006H20.8601V6.79095L19.043 7.15481C15.9468 7.77405 13.793 8.99218 12.6405 10.7798C12.039 11.7429 11.698 12.8456 11.6506 13.98H18.6001C19.1995 13.98 19.7743 14.2181 20.1981 14.6419C20.622 15.0658 20.8601 15.6406 20.8601 16.24V32.06C20.8601 34.5528 18.8328 36.58 16.3401 36.58H2.78007C2.18068 36.58 1.60584 36.3419 1.18201 35.9181C0.758176 35.4942 0.52007 34.9194 0.52007 34.32V23.02L0.52685 16.4231C0.50651 16.1722 0.0771099 10.2284 4.34173 5.59993ZM41.2001 36.58H27.6401C27.0407 36.58 26.4658 36.3419 26.042 35.9181C25.6182 35.4942 25.3801 34.9194 25.3801 34.32V23.02L25.3869 16.4231C25.3665 16.1722 24.9371 10.2284 29.2017 5.59993C32.3725 2.16247 37.1705 0.420006 43.4601 0.420006H45.7201V6.79095L43.903 7.15481C40.8068 7.77405 38.6531 8.99218 37.5005 10.7798C36.8991 11.7429 36.558 12.8456 36.5106 13.98H43.4601C44.0595 13.98 44.6343 14.2181 45.0581 14.6419C45.482 15.0658 45.7201 15.6406 45.7201 16.24V32.06C45.7201 34.5528 43.6929 36.58 41.2001 36.58Z" fill="#5C5470"/>
</svg>
