<svg width="26" height="24" viewBox="0 0 26 24" fill="none" xmlns="http://www.w3.org/2000/svg">
<path d="M12.031 0.0520186C11.71 0.0530186 11.355 0.197019 11.031 0.520019L5.312 6.98902H1C0.449 6.98902 0 7.43802 0 7.98902V15.989C0 16.54 0.449 16.989 1 16.989H5.313L11 23.427C12 24.427 13 23.915 13 22.552V1.26902C13 0.478019 12.567 0.0470186 12.031 0.0500186V0.0520186ZM19.281 2.05202C19.0683 2.08912 18.8734 2.19405 18.7253 2.35114C18.5772 2.50822 18.4839 2.70901 18.4593 2.92351C18.4348 3.138 18.4803 3.35467 18.5891 3.54114C18.698 3.72761 18.8642 3.87385 19.063 3.95802C20.5507 4.70595 21.8006 5.85351 22.6726 7.27202C23.5447 8.69053 24.0043 10.3239 24 11.989C24 15.513 22 18.539 19.062 20.02C18.9283 20.0665 18.806 20.1409 18.7032 20.2382C18.6004 20.3355 18.5194 20.4536 18.4656 20.5845C18.4118 20.7155 18.3865 20.8563 18.3912 20.9978C18.3959 21.1393 18.4306 21.2782 18.493 21.4052C18.5554 21.5323 18.644 21.6447 18.7531 21.7349C18.8622 21.8252 18.9892 21.8912 19.1257 21.9287C19.2622 21.9662 19.4051 21.9743 19.5449 21.9525C19.6848 21.9307 19.8184 21.8794 19.937 21.802C23.53 19.989 26 16.277 26 11.989C26 7.70102 23.529 3.98902 19.937 2.17602C19.7659 2.08051 19.5704 2.03739 19.375 2.05202C19.3437 2.05055 19.3123 2.05055 19.281 2.05202ZM16.906 5.92602C16.6907 5.94183 16.4863 6.0269 16.3233 6.16852C16.1603 6.31014 16.0476 6.50069 16.0019 6.7117C15.9562 6.92271 15.98 7.14284 16.0698 7.33919C16.1596 7.53554 16.3105 7.69755 16.5 7.80102C18.043 8.76002 19 10.279 19 11.989C19 13.711 18.028 15.25 16.469 16.208C16.3465 16.2719 16.2386 16.3605 16.1521 16.4682C16.0655 16.5758 16.0022 16.7003 15.9662 16.8336C15.9301 16.967 15.9221 17.1064 15.9426 17.243C15.9631 17.3796 16.0117 17.5105 16.0853 17.6274C16.1588 17.7443 16.2559 17.8447 16.3702 17.9222C16.4845 17.9998 16.6137 18.0528 16.7495 18.0779C16.8853 18.1031 17.0249 18.0998 17.1594 18.0683C17.2939 18.0368 17.4204 17.9778 17.531 17.895C19.601 16.625 21 14.465 21 11.989C21 9.52802 19.613 7.35602 17.562 6.08302C17.3944 5.97598 17.1988 5.92132 17 5.92602C16.9687 5.92454 16.9373 5.92454 16.906 5.92602Z" fill="#5C5470"/>
</svg>
