<svg width="29" height="29" viewBox="0 0 29 29" fill="none" xmlns="http://www.w3.org/2000/svg">
<mask id="path-1-inside-1_21_372" fill="white">
<path d="M28.8286 8.32768L27.4718 6.16854C27.303 5.89966 27.0246 5.70326 26.6978 5.62254C26.371 5.54181 26.0227 5.58337 25.7294 5.73807L17.6236 10.0428C17.5733 10.0694 17.5162 10.0834 17.4581 10.0832C17.4 10.0831 17.343 10.0689 17.2928 10.0421C17.2426 10.0153 17.201 9.97673 17.1723 9.93043C17.1436 9.88413 17.1288 9.83169 17.1293 9.77844L17.1359 1.20833C17.1359 0.887863 16.997 0.580519 16.7498 0.353913C16.5026 0.127306 16.1673 0 15.8177 0H13.1814C12.8319 0 12.4966 0.127306 12.2494 0.353913C12.0022 0.580519 11.8633 0.887863 11.8633 1.20833L11.8691 9.78524C11.8696 9.83849 11.8547 9.89093 11.826 9.93723C11.7973 9.98353 11.7558 10.0221 11.7056 10.0489C11.6554 10.0757 11.5984 10.0899 11.5403 10.09C11.4822 10.0902 11.4251 10.0762 11.3748 10.0496L3.269 5.74487C2.97566 5.59017 2.6273 5.54861 2.30054 5.62933C1.97378 5.71006 1.69538 5.90646 1.52658 6.17534L0.170536 8.33523C0.0868168 8.468 0.032526 8.61461 0.0107798 8.76665C-0.0109665 8.9187 0.000260122 9.07319 0.0438152 9.22125C0.0873703 9.3693 0.162396 9.50802 0.264586 9.62943C0.366776 9.75084 0.494118 9.85255 0.639301 9.92872L8.7533 14.2395C8.80286 14.2661 8.84395 14.3042 8.8725 14.3499C8.90105 14.3956 8.91607 14.4473 8.91607 14.5C8.91607 14.5527 8.90105 14.6044 8.8725 14.6501C8.84395 14.6958 8.80286 14.7339 8.7533 14.7605L0.639301 19.0713C0.348068 19.2268 0.135506 19.4814 0.0477455 19.7797C-0.0400151 20.0781 0.00410678 20.3961 0.170536 20.6648L1.5274 22.8239C1.69621 23.0928 1.97461 23.2892 2.30137 23.3699C2.62813 23.4506 2.97649 23.4091 3.26982 23.2544L11.3756 18.9497C11.4259 18.9231 11.483 18.9091 11.5411 18.9092C11.5992 18.9093 11.6562 18.9235 11.7064 18.9504C11.7566 18.9772 11.7981 19.0157 11.8269 19.062C11.8556 19.1083 11.8704 19.1608 11.8699 19.214L11.8633 27.7917C11.8633 28.1121 12.0022 28.4195 12.2494 28.6461C12.4966 28.8727 12.8319 29 13.1814 29H15.8177C16.1673 29 16.5026 28.8727 16.7498 28.6461C16.997 28.4195 17.1359 28.1121 17.1359 27.7917L17.1301 19.2072C17.1296 19.154 17.1444 19.1015 17.1731 19.0552C17.2019 19.0089 17.2434 18.9704 17.2936 18.9436C17.3438 18.9167 17.4008 18.9025 17.4589 18.9024C17.517 18.9023 17.5741 18.9163 17.6244 18.9429L25.7302 23.2476C26.0235 23.4023 26.3719 23.4438 26.6986 23.3631C27.0254 23.2824 27.3038 23.086 27.4726 22.8171L28.8295 20.658C28.9132 20.5252 28.9675 20.3786 28.9892 20.2265C29.011 20.0745 28.9997 19.92 28.9562 19.772C28.9126 19.6239 28.8376 19.4852 28.7354 19.3638C28.6332 19.2424 28.5059 19.1407 28.3607 19.0645L20.2467 14.7537C20.1971 14.7271 20.1561 14.689 20.1275 14.6433C20.0989 14.5976 20.0839 14.5459 20.0839 14.4932C20.0839 14.4405 20.0989 14.3888 20.1275 14.3431C20.1561 14.2974 20.1971 14.2593 20.2467 14.2327L28.3607 9.92193C28.6525 9.76666 28.8655 9.5119 28.9531 9.21322C29.0408 8.91455 28.9961 8.59622 28.8286 8.32768Z"/>
</mask>
<path d="M28.8286 8.32768L27.4718 6.16854C27.303 5.89966 27.0246 5.70326 26.6978 5.62254C26.371 5.54181 26.0227 5.58337 25.7294 5.73807L17.6236 10.0428C17.5733 10.0694 17.5162 10.0834 17.4581 10.0832C17.4 10.0831 17.343 10.0689 17.2928 10.0421C17.2426 10.0153 17.201 9.97673 17.1723 9.93043C17.1436 9.88413 17.1288 9.83169 17.1293 9.77844L17.1359 1.20833C17.1359 0.887863 16.997 0.580519 16.7498 0.353913C16.5026 0.127306 16.1673 0 15.8177 0H13.1814C12.8319 0 12.4966 0.127306 12.2494 0.353913C12.0022 0.580519 11.8633 0.887863 11.8633 1.20833L11.8691 9.78524C11.8696 9.83849 11.8547 9.89093 11.826 9.93723C11.7973 9.98353 11.7558 10.0221 11.7056 10.0489C11.6554 10.0757 11.5984 10.0899 11.5403 10.09C11.4822 10.0902 11.4251 10.0762 11.3748 10.0496L3.269 5.74487C2.97566 5.59017 2.6273 5.54861 2.30054 5.62933C1.97378 5.71006 1.69538 5.90646 1.52658 6.17534L0.170536 8.33523C0.0868168 8.468 0.032526 8.61461 0.0107798 8.76665C-0.0109665 8.9187 0.000260122 9.07319 0.0438152 9.22125C0.0873703 9.3693 0.162396 9.50802 0.264586 9.62943C0.366776 9.75084 0.494118 9.85255 0.639301 9.92872L8.7533 14.2395C8.80286 14.2661 8.84395 14.3042 8.8725 14.3499C8.90105 14.3956 8.91607 14.4473 8.91607 14.5C8.91607 14.5527 8.90105 14.6044 8.8725 14.6501C8.84395 14.6958 8.80286 14.7339 8.7533 14.7605L0.639301 19.0713C0.348068 19.2268 0.135506 19.4814 0.0477455 19.7797C-0.0400151 20.0781 0.00410678 20.3961 0.170536 20.6648L1.5274 22.8239C1.69621 23.0928 1.97461 23.2892 2.30137 23.3699C2.62813 23.4506 2.97649 23.4091 3.26982 23.2544L11.3756 18.9497C11.4259 18.9231 11.483 18.9091 11.5411 18.9092C11.5992 18.9093 11.6562 18.9235 11.7064 18.9504C11.7566 18.9772 11.7981 19.0157 11.8269 19.062C11.8556 19.1083 11.8704 19.1608 11.8699 19.214L11.8633 27.7917C11.8633 28.1121 12.0022 28.4195 12.2494 28.6461C12.4966 28.8727 12.8319 29 13.1814 29H15.8177C16.1673 29 16.5026 28.8727 16.7498 28.6461C16.997 28.4195 17.1359 28.1121 17.1359 27.7917L17.1301 19.2072C17.1296 19.154 17.1444 19.1015 17.1731 19.0552C17.2019 19.0089 17.2434 18.9704 17.2936 18.9436C17.3438 18.9167 17.4008 18.9025 17.4589 18.9024C17.517 18.9023 17.5741 18.9163 17.6244 18.9429L25.7302 23.2476C26.0235 23.4023 26.3719 23.4438 26.6986 23.3631C27.0254 23.2824 27.3038 23.086 27.4726 22.8171L28.8295 20.658C28.9132 20.5252 28.9675 20.3786 28.9892 20.2265C29.011 20.0745 28.9997 19.92 28.9562 19.772C28.9126 19.6239 28.8376 19.4852 28.7354 19.3638C28.6332 19.2424 28.5059 19.1407 28.3607 19.0645L20.2467 14.7537C20.1971 14.7271 20.1561 14.689 20.1275 14.6433C20.0989 14.5976 20.0839 14.5459 20.0839 14.4932C20.0839 14.4405 20.0989 14.3888 20.1275 14.3431C20.1561 14.2974 20.1971 14.2593 20.2467 14.2327L28.3607 9.92193C28.6525 9.76666 28.8655 9.5119 28.9531 9.21322C29.0408 8.91455 28.9961 8.59622 28.8286 8.32768Z" fill="#5C5470"/>
<path d="M28.8286 8.32768L30.5258 7.26958L30.522 7.26351L28.8286 8.32768ZM27.4718 6.16854L25.7779 7.23197L25.7784 7.23271L27.4718 6.16854ZM25.7294 5.73807L24.7964 3.96902L24.7913 3.97171L25.7294 5.73807ZM17.6236 10.0428L18.5592 11.8104L18.5616 11.8091L17.6236 10.0428ZM17.1293 9.77844L19.1292 9.79807C19.1293 9.79204 19.1293 9.78601 19.1293 9.77997L17.1293 9.77844ZM17.1359 1.20833L19.1359 1.20987V1.20833H17.1359ZM15.8177 0V-2V0ZM11.8633 1.20833H9.8633L9.8633 1.20968L11.8633 1.20833ZM11.8691 9.78524L9.86907 9.78658C9.86907 9.79268 9.8691 9.79877 9.86916 9.80487L11.8691 9.78524ZM11.3748 10.0496L10.4367 11.8159L10.4391 11.8172L11.3748 10.0496ZM3.269 5.74487L4.20706 3.9785L4.20199 3.97582L3.269 5.74487ZM1.52658 6.17534L3.22042 7.23878L3.22043 7.23876L1.52658 6.17534ZM0.170536 8.33523L1.86227 9.40203L1.86438 9.39867L0.170536 8.33523ZM0.639301 9.92872L1.57765 8.16248L1.56854 8.1577L0.639301 9.92872ZM8.7533 14.2395L9.70068 12.478L9.69164 12.4732L8.7533 14.2395ZM8.7533 14.7605L9.69165 16.5268L9.70067 16.5219L8.7533 14.7605ZM0.639301 19.0713L-0.29904 17.3051L-0.302974 17.3072L0.639301 19.0713ZM0.170536 20.6648L-1.52976 21.7179L-1.52285 21.7289L0.170536 20.6648ZM1.5274 22.8239L3.22125 21.7605L3.22078 21.7597L1.5274 22.8239ZM3.26982 23.2544L4.20282 25.0234L4.20788 25.0207L3.26982 23.2544ZM11.3756 18.9497L10.44 17.182L10.4375 17.1833L11.3756 18.9497ZM11.8699 19.214L9.86999 19.1944C9.86993 19.2004 9.8699 19.2064 9.86989 19.2125L11.8699 19.214ZM11.8633 27.7917L9.8633 27.7901V27.7917H11.8633ZM17.1359 27.7917H19.1359V27.7903L17.1359 27.7917ZM17.1301 19.2072L19.1301 19.2059C19.1301 19.1998 19.1301 19.1937 19.13 19.1876L17.1301 19.2072ZM17.6244 18.9429L18.5625 17.1765L18.56 17.1752L17.6244 18.9429ZM25.7302 23.2476L24.7921 25.014L24.7972 25.0166L25.7302 23.2476ZM27.4726 22.8171L25.7792 21.7529L25.7787 21.7537L27.4726 22.8171ZM28.8295 20.658L27.1377 19.5912L27.1361 19.5938L28.8295 20.658ZM28.3607 19.0645L27.4223 20.8307L27.4315 20.8355L28.3607 19.0645ZM20.2467 14.7537L19.2993 16.5152L19.3084 16.52L20.2467 14.7537ZM20.2467 14.2327L19.3083 12.4664L19.2993 12.4713L20.2467 14.2327ZM28.3607 9.92193L29.299 11.6881L29.3002 11.6876L28.3607 9.92193ZM30.522 7.26351L29.1652 5.10437L25.7784 7.23271L27.1353 9.39185L30.522 7.26351ZM29.1656 5.10512C28.7034 4.36889 27.9741 3.8777 27.1775 3.68091L26.2181 7.56416C26.0751 7.52882 25.9025 7.43044 25.7779 7.23197L29.1656 5.10512ZM27.1775 3.68091C26.3825 3.4845 25.5306 3.58179 24.7964 3.96902L26.6623 7.50712C26.5148 7.58495 26.3596 7.59912 26.2181 7.56416L27.1775 3.68091ZM24.7913 3.97171L16.6855 8.27639L18.5616 11.8091L26.6674 7.50444L24.7913 3.97171ZM16.688 8.27511C16.9333 8.14526 17.1997 8.08271 17.4621 8.08324L17.454 12.0832C17.8326 12.084 18.2133 11.9935 18.5592 11.8104L16.688 8.27511ZM17.4621 8.08324C17.7245 8.08377 17.9909 8.14741 18.2359 8.27841L16.3497 11.8058C16.695 11.9904 17.0754 12.0825 17.454 12.0832L17.4621 8.08324ZM18.2359 8.27841C18.4815 8.40978 18.707 8.61019 18.8721 8.87648L15.4726 10.9844C15.6951 11.3433 16.0036 11.6207 16.3497 11.8058L18.2359 8.27841ZM18.8721 8.87648C19.0383 9.14457 19.1325 9.46318 19.1292 9.79807L15.1294 9.75881C15.1251 10.2002 15.2489 10.6237 15.4726 10.9844L18.8721 8.87648ZM19.1293 9.77997L19.1359 1.20987L15.1359 1.2068L15.1293 9.7769L19.1293 9.77997ZM19.1359 1.20833C19.1359 0.298522 18.74 -0.534816 18.1013 -1.12038L15.3983 1.8282C15.254 1.69585 15.1359 1.4772 15.1359 1.20833H19.1359ZM18.1013 -1.12038C17.4683 -1.7006 16.6443 -2 15.8177 -2V2C15.6903 2 15.5369 1.95521 15.3983 1.8282L18.1013 -1.12038ZM15.8177 -2H13.1814V2H15.8177V-2ZM13.1814 -2C12.3548 -2 11.5309 -1.70059 10.8979 -1.12038L13.6008 1.8282C13.4623 1.95521 13.3089 2 13.1814 2V-2ZM10.8979 -1.12038C10.2591 -0.534819 9.8633 0.298517 9.8633 1.20833H13.8633C13.8633 1.47721 13.7452 1.69586 13.6008 1.8282L10.8979 -1.12038ZM9.8633 1.20968L9.86907 9.78658L13.8691 9.78389L13.8633 1.20699L9.8633 1.20968ZM9.86916 9.80487C9.86588 9.46994 9.96007 9.15133 10.1263 8.88328L13.5258 10.9912C13.7494 10.6305 13.8733 10.207 13.869 9.7656L9.86916 9.80487ZM10.1263 8.88328C10.2914 8.61699 10.5168 8.41658 10.7625 8.28521L12.6487 11.8126C12.9947 11.6275 13.3033 11.3501 13.5258 10.9912L10.1263 8.88328ZM10.7625 8.28521C11.0075 8.15422 11.2738 8.09057 11.5362 8.09004L11.5443 12.09C11.923 12.0893 12.3034 11.9972 12.6487 11.8126L10.7625 8.28521ZM11.5362 8.09004C11.7986 8.08951 12.0651 8.15206 12.3104 8.28191L10.4391 11.8172C10.7851 12.0003 11.1657 12.0908 11.5443 12.09L11.5362 8.09004ZM12.3128 8.28319L4.20705 3.9785L2.33094 7.51124L10.4367 11.8159L12.3128 8.28319ZM4.20199 3.97582C3.46775 3.58859 2.6159 3.49129 1.82086 3.68771L2.78022 7.57096C2.63871 7.60592 2.48357 7.59174 2.33601 7.51392L4.20199 3.97582ZM1.82086 3.68771C1.0243 3.8845 0.294941 4.37569 -0.167274 5.11192L3.22043 7.23876C3.09582 7.43724 2.92326 7.53562 2.78022 7.57096L1.82086 3.68771ZM-0.167264 5.1119L-1.52331 7.27179L1.86438 9.39867L3.22042 7.23878L-0.167264 5.1119ZM-1.52119 7.26844C-1.75164 7.63388 -1.9066 8.04667 -1.96907 8.48349L1.99063 9.04982C1.97165 9.18254 1.92527 9.30212 1.86226 9.40203L-1.52119 7.26844ZM-1.96907 8.48349C-2.03159 8.92059 -1.99891 9.3641 -1.87489 9.78568L1.96252 8.65681C1.99943 8.78228 2.00966 8.91681 1.99063 9.04982L-1.96907 8.48349ZM-1.87489 9.78568C-1.75101 10.2068 -1.54074 10.5904 -1.26554 10.9173L1.79471 8.34152C1.86554 8.42566 1.92575 8.53184 1.96252 8.65681L-1.87489 9.78568ZM-1.26554 10.9173C-0.990723 11.2438 -0.65708 11.5071 -0.289936 11.6997L1.56854 8.1577C1.64532 8.19799 1.72427 8.25783 1.79471 8.34152L-1.26554 10.9173ZM-0.299038 11.6949L7.81496 16.0057L9.69164 12.4732L1.57764 8.16251L-0.299038 11.6949ZM7.80593 16.0008C7.56317 15.8703 7.34036 15.6722 7.1763 15.4095L10.5687 13.2902C10.3475 12.9362 10.0425 12.6619 9.70067 12.4781L7.80593 16.0008ZM7.1763 15.4095C7.01118 15.1452 6.91607 14.8311 6.91607 14.5H10.9161C10.9161 14.0636 10.7909 13.6459 10.5687 13.2902L7.1763 15.4095ZM6.91607 14.5C6.91607 14.1689 7.01118 13.8548 7.1763 13.5905L10.5687 15.7098C10.7909 15.3541 10.9161 14.9364 10.9161 14.5H6.91607ZM7.1763 13.5905C7.34035 13.3279 7.56315 13.1297 7.80593 12.9992L9.70067 16.5219C10.0426 16.338 10.3475 16.0638 10.5687 15.7098L7.1763 13.5905ZM7.81496 12.9943L-0.299037 17.3051L1.57764 20.8375L9.69164 16.5268L7.81496 12.9943ZM-0.302974 17.3072C-1.03489 17.6981 -1.6217 18.368 -1.87096 19.2153L1.96645 20.3442C1.89271 20.5948 1.73103 20.7556 1.58158 20.8354L-0.302974 17.3072ZM-1.87096 19.2153C-2.12223 20.0695 -1.99009 20.9747 -1.52972 21.7179L1.8708 19.6116C1.9983 19.8175 2.0422 20.0866 1.96645 20.3442L-1.87096 19.2153ZM-1.52285 21.7289L-0.165982 23.8881L3.22078 21.7597L1.86392 19.6006L-1.52285 21.7289ZM-0.16645 23.8873C0.295767 24.6236 1.02513 25.1147 1.82168 25.3115L2.78105 21.4283C2.92408 21.4636 3.09664 21.562 3.22125 21.7605L-0.16645 23.8873ZM1.82168 25.3115C2.61671 25.5079 3.46857 25.4107 4.20281 25.0234L2.33683 21.4853C2.4844 21.4075 2.63954 21.3933 2.78105 21.4283L1.82168 25.3115ZM4.20788 25.0207L12.3136 20.7161L10.4375 17.1833L2.33177 21.488L4.20788 25.0207ZM12.3112 20.7173C12.066 20.8472 11.7995 20.9097 11.537 20.9092L11.5452 16.9092C11.1665 16.9084 10.7858 16.999 10.44 17.182L12.3112 20.7173ZM11.537 20.9092C11.2746 20.9087 11.0083 20.845 10.7633 20.714L12.6495 17.1867C12.3042 17.002 11.9238 16.91 11.5452 16.9092L11.537 20.9092ZM10.7633 20.714C10.5177 20.5827 10.2922 20.3823 10.1271 20.116L13.5266 18.0081C13.3041 17.6491 12.9955 17.3717 12.6495 17.1867L10.7633 20.714ZM10.1271 20.116C9.96087 19.8479 9.8667 19.5293 9.86999 19.1944L13.8698 19.2336C13.8741 18.7923 13.7503 18.3688 13.5266 18.0081L10.1271 20.116ZM9.86989 19.2125L9.8633 27.7901L13.8633 27.7932L13.8699 19.2155L9.86989 19.2125ZM9.8633 27.7917C9.8633 28.7015 10.2591 29.5348 10.8979 30.1204L13.6008 27.1718C13.7452 27.3041 13.8633 27.5228 13.8633 27.7917H9.8633ZM10.8979 30.1204C11.5309 30.7006 12.3548 31 13.1814 31V27C13.3089 27 13.4623 27.0448 13.6008 27.1718L10.8979 30.1204ZM13.1814 31H15.8177V27H13.1814V31ZM15.8177 31C16.6443 31 17.4683 30.7006 18.1013 30.1204L15.3983 27.1718C15.5369 27.0448 15.6903 27 15.8177 27V31ZM18.1013 30.1204C18.74 29.5348 19.1359 28.7015 19.1359 27.7917H15.1359C15.1359 27.5228 15.254 27.3041 15.3983 27.1718L18.1013 30.1204ZM19.1359 27.7903L19.1301 19.2059L15.1301 19.2086L15.1359 27.793L19.1359 27.7903ZM19.13 19.1876C19.1333 19.5225 19.0391 19.8411 18.8729 20.1092L15.4734 18.0013C15.2497 18.3619 15.1259 18.7854 15.1302 19.2268L19.13 19.1876ZM18.8729 20.1092C18.7078 20.3755 18.4823 20.5759 18.2367 20.7072L16.3505 17.1799C16.0045 17.3649 15.6959 17.6423 15.4734 18.0013L18.8729 20.1092ZM18.2367 20.7072C17.9918 20.8382 17.7254 20.9019 17.463 20.9024L17.4548 16.9024C17.0762 16.9032 16.6958 16.9952 16.3505 17.1799L18.2367 20.7072ZM17.463 20.9024C17.2005 20.9029 16.9341 20.8404 16.6888 20.7105L18.56 17.1752C18.2141 16.9921 17.8335 16.9016 17.4548 16.9024L17.463 20.9024ZM16.6864 20.7093L24.7921 25.0139L26.6682 21.4812L18.5625 17.1765L16.6864 20.7093ZM24.7972 25.0166C25.5314 25.4039 26.3833 25.5012 27.1783 25.3047L26.219 21.4215C26.3605 21.3865 26.5156 21.4007 26.6632 21.4785L24.7972 25.0166ZM27.1783 25.3047C27.9749 25.108 28.7042 24.6168 29.1665 23.8805L25.7787 21.7537C25.9034 21.5552 26.0759 21.4568 26.219 21.4215L27.1783 25.3047ZM29.166 23.8813L30.5228 21.7221L27.1361 19.5938L25.7792 21.7529L29.166 23.8813ZM30.5212 21.7248C30.7516 21.3593 30.9066 20.9465 30.9691 20.5097L27.0094 19.9434C27.0283 19.8107 27.0747 19.6911 27.1377 19.5912L30.5212 21.7248ZM30.9691 20.5097C31.0316 20.0726 30.9989 19.6291 30.8749 19.2075L27.0375 20.3364C27.0006 20.2109 26.9903 20.0764 27.0094 19.9434L30.9691 20.5097ZM30.8749 19.2075C30.751 18.7864 30.5407 18.4028 30.2655 18.0759L27.2053 20.6517C27.1345 20.5675 27.0742 20.4614 27.0375 20.3364L30.8749 19.2075ZM30.2655 18.0759C29.9907 17.7494 29.6571 17.4861 29.2899 17.2935L27.4315 20.8355C27.3547 20.7952 27.2757 20.7354 27.2053 20.6517L30.2655 18.0759ZM29.299 17.2983L21.185 12.9875L19.3084 16.52L27.4224 20.8307L29.299 17.2983ZM21.1941 12.9924C21.4368 13.1229 21.6596 13.321 21.8237 13.5837L18.4313 15.703C18.6525 16.0571 18.9575 16.3313 19.2993 16.5151L21.1941 12.9924ZM21.8237 13.5837C21.9888 13.848 22.0839 14.1621 22.0839 14.4932H18.0839C18.0839 14.9296 18.2091 15.3473 18.4313 15.703L21.8237 13.5837ZM22.0839 14.4932C22.0839 14.8243 21.9888 15.1384 21.8237 15.4028L18.4313 13.2834C18.2091 13.6391 18.0839 14.0568 18.0839 14.4932H22.0839ZM21.8237 15.4028C21.6596 15.6654 21.4368 15.8635 21.1941 15.994L19.2993 12.4713C18.9575 12.6551 18.6525 12.9294 18.4313 13.2834L21.8237 15.4028ZM21.185 15.9989L29.299 11.6881L27.4224 8.15571L19.3084 12.4664L21.185 15.9989ZM29.3002 11.6876C30.0342 11.297 30.6229 10.6259 30.8722 9.7765L27.0341 8.64995C27.1081 8.39787 27.2708 8.23633 27.4212 8.1563L29.3002 11.6876ZM30.8722 9.7765C31.1235 8.92014 30.9893 8.013 30.5258 7.26959L27.1315 9.38578C27.0028 9.17944 26.9581 8.90897 27.0341 8.64995L30.8722 9.7765Z" fill="#5C5470" mask="url(#path-1-inside-1_21_372)"/>
</svg>
